<?xml version="1.0" standalone="no"?>
<!DOCTYPE svg PUBLIC "-//W3C//DTD SVG 20010904//EN"
 "http://www.w3.org/TR/2001/REC-SVG-20010904/DTD/svg10.dtd">
<svg version="1.0" xmlns="http://www.w3.org/2000/svg"
 width="700.000000pt" height="700.000000pt" viewBox="0 0 700.000000 700.000000"
 preserveAspectRatio="xMidYMid meet">
<metadata>
Created by potrace 1.14, written by Peter Selinger 2001-2017
</metadata>
<g transform="translate(0.000000,700.000000) scale(0.100000,-0.100000)"
fill="#000000" stroke="none">
<path d="M0 6465 l0 -535 535 0 535 0 0 535 0 535 -535 0 -535 0 0 -535z"/>
<path d="M5930 6465 l0 -535 535 0 535 0 0 535 0 535 -535 0 -535 0 0 -535z"/>
<path d="M1979 6923 c0 -10 -1 -236 -1 -503 l-1 -485 535 -3 535 -2 0 505 -1
505 -533 0 c-501 0 -533 -1 -534 -17z"/>
<path d="M3957 6933 c-3 -5 -4 -232 -4 -506 l0 -497 535 2 535 3 0 485 c-1
267 -2 493 -2 503 -1 16 -33 17 -530 17 -292 0 -532 -3 -534 -7z"/>
<path d="M10 5022 c-6 -2 -10 -190 -10 -536 l0 -533 533 1 532 1 0 534 0 535
-523 0 c-287 1 -527 0 -532 -2z"/>
<path d="M1979 5005 c-4 -106 0 -1035 4 -1042 4 -6 206 -9 534 -9 l528 1 1
533 c0 292 -2 532 -5 533 -3 0 -243 1 -534 2 -521 2 -527 2 -528 -18z"/>
<path d="M3974 5022 l-21 -3 1 -532 1 -532 525 -1 c289 0 530 1 535 3 11 4 13
1048 2 1060 -7 6 -1000 11 -1043 5z"/>
<path d="M5940 5022 c-6 -2 -10 -190 -10 -536 l0 -532 533 1 532 0 0 534 0
534 -523 1 c-287 1 -527 0 -532 -2z"/>
<path d="M2 2512 l3 -535 520 0 c286 1 526 2 533 2 9 1 12 115 12 534 l0 533
-535 0 -535 0 2 -534z"/>
<path d="M1979 3026 c-1 -26 -1 -1016 0 -1036 1 -13 65 -15 518 -13 285 1 525
2 534 2 13 1 15 60 16 536 l1 535 -534 -1 -534 -1 -1 -22z"/>
<path d="M3961 3041 c-4 -4 -8 -243 -8 -533 0 -478 1 -528 16 -529 20 -1 1021
-1 1041 0 13 1 15 62 13 493 -1 271 -2 511 -2 534 l-1 41 -525 -1 c-289 0
-529 -2 -534 -5z"/>
<path d="M5930 2513 c0 -419 3 -533 13 -534 6 0 235 -1 508 -2 l495 -2 0 535
-1 535 -507 1 -508 0 0 -533z"/>
<path d="M0 535 l0 -535 535 0 535 0 0 535 0 535 -535 0 -535 0 0 -535z"/>
<path d="M1979 1048 c0 -13 -1 -252 -1 -533 l-1 -510 535 -3 535 -2 0 535 0
535 -533 0 -534 0 -1 -22z"/>
<path d="M3953 535 l0 -535 535 2 535 3 0 525 c-1 289 -2 528 -2 533 -1 4
-241 7 -535 7 l-533 0 0 -535z"/>
<path d="M5930 535 l0 -535 508 2 507 3 1 533 0 532 -508 0 -508 0 0 -535z"/>
</g>
</svg>
